# xmcd CD database file generated by OrangeCD 6.2
#
# Track frame offsets:
#	150
#	10417
#	21414
#	32170
#	45609
#	55933
#	65375
#	78986
#	98080
#	114564
#	131504
#
# Disc length: 1918 seconds
#
# Revision: 0
# Processed by: cddbd v1.5.2PL0 Copyright (c) Steve Scherf et al.
# Submitted via: OrangeCD 6.2
#
DISCID=8c077c0b
DTITLE=Meagan Taylor - Where It All Began
DYEAR=2008
DGENRE=
TTITLE0=Confusin'
TTITLE1=Mister Sandman
TTITLE2=San Antonio Rose
TTITLE3=Liza - Say Si Si
TTITLE4=Vilia
TTITLE5=Freight Train
TTITLE6=Londonderry Air
TTITLE7=Mr. Bojangles
TTITLE8=Tahitian Skies
TTITLE9=Vincent
TTITLE10=Happy Again
EXTD=
EXTT0=
EXTT1=
EXTT2=
EXTT3=
EXTT4=
EXTT5=
EXTT6=
EXTT7=
EXTT8=
EXTT9=
EXTT10=
PLAYORDER=
